#!OML:ASF G:\ViconDB\ViconDB\414\test\team2\shane.ASF
:FULLY-SPECIFIED
:DEGREES
148
root -4.57991 16.5907 1.68505 -11.4864 24.9865 -10.4172
lowerback 6.66303 3.34681 7.49126
upperback 2.0425 4.98652 1.21717
thorax -1.07895 2.51017 -3.27325
lowerneck -15.0665 -2.24966 -2.7725
upperneck 24.0948 -3.71607 5.32357
head 10.3451 -1.28551 1.87252
rclavicle -6.23438e-014 -3.02153e-014
rhumerus -16.5491 14.8402 -96.2055
rradius 39.2906
rwrist 33.9016
rhand -32.1296 -13.8557
rfingers 7.12502
rthumb -5.37388 -43.7676
lclavicle -6.23438e-014 -3.02153e-014
lhumerus -49.5577 4.92492 72.8904
lradius 11.3547
lwrist -33.7593
lhand -34.5826 6.90863
lfingers 7.12502
lthumb -7.74193 36.7469
rfemur 33.8552 -13.4052 16.8245
rtibia 4.45278e-014
rfoot -8.72938 2.34262
rtoes -25.0851
lfemur -18.442 21.1557 -12.181
ltibia 32.0632
lfoot -17.9884 -16.0159
ltoes -10.7066
149
root -4.4383 16.5888 1.84283 -11.6205 25.0074 -10.4559
lowerback 6.62663 3.37046 7.67611
upperback 1.82579 5.03437 1.10054
thorax -1.25176 2.52174 -3.50465
lowerneck -14.7738 -2.22651 -2.66122
upperneck 24.2427 -3.74479 5.42381
head 10.3437 -1.27699 1.8894
rclavicle -9.8504e-014 2.22639e-014
rhumerus -17.4333 15.2032 -96.5763
rradius 39.5946
rwrist 32.9141
rhand -32.0213 -14.0297
rfingers 7.12502
rthumb -5.2693 -43.9442
lclavicle -9.8504e-014 2.22639e-014
lhumerus -50.0506 7.41572 70.3318
lradius 10.8129
lwrist -37.018
lhand -34.5764 6.70851
lfingers 7.12502
lthumb -7.73592 36.547
rfemur 34.5012 -12.8742 16.4643
rtibia 1.27222e-014
rfoot -6.91875 2.91676
rtoes -26.7359
lfemur -17.5758 20.1249 -11.9758
ltibia 32.1996
lfoot -16.1821 -16.6426
ltoes -9.09486
150
root -4.31337 16.601 2.01586 -11.4224 25.1941 -9.76886
lowerback 6.3354 3.46321 6.82707
upperback 1.72479 5.07561 0.861114
thorax -1.24326 2.54007 -3.26972
lowerneck -14.8772 -2.13248 -2.43143
upperneck 24.5677 -3.72403 5.58244
head 10.4808 -1.21843 1.91413
rclavicle -1.09993e-013 -1.27222e-014
rhumerus -18.1494 14.6707 -96.8285
rradius 39.1949
rwrist 34.3667
rhand -32.2218 -13.5066
rfingers 7.12502
rthumb -5.46292 -43.4162
lclavicle -1.09993e-013 -1.27222e-014
lhumerus -50.1396 5.85767 71.7974
lradius 10.9612
lwrist -34.6752
lhand -34.0108 6.76927
lfingers 7.12502
lthumb -7.18998 36.6271
rfemur 35.1044 -12.3504 15.3956
rtibia 9.54166e-015
rfoot -4.71006 3.66028
rtoes -28.2186
lfemur -16.6753 19.8621 -12.6155
ltibia 32.2656
lfoot -15.5256 -17.1444
ltoes -7.09818
151
root -4.18504 16.6155 2.16994 -11.3545 25.6393 -9.38309
lowerback 6.61832 4.50596 9.83453
upperback 1.55051 6.65878 -0.930597
thorax -0.846186 3.3545 -6.8804
lowerneck -14.6557 -3.52154 -2.83137
upperneck 24.2298 -6.04811 7.41052
head 10.51 -2.10939 2.31853
rclavicle 6.94504e-014 1.51076e-014
rhumerus -18.2621 8.60379 -96.8483
rradius 38.7339
rwrist 36.1783
rhand -32.3586 -13.2386
rfingers 7.12502
rthumb -5.595 -43.1447
lclavicle 6.94504e-014 1.51076e-014
lhumerus -48.2926 -0.182442 73.75
lradius 10.9967
lwrist -32.3096
lhand -34.1499 7.10802
lfingers 7.12502
lthumb -7.32425 36.9613
rfemur 33.2167 -12.2399 14.4221
rtibia 5.28156
rfoot -4.72372 4.61271
rtoes -30.0283
lfemur -15.8979 19.0029 -12.8819
ltibia 32.2912
lfoot -15.12 -16.9558
ltoes -5.83663
152
root -4.05413 16.627 2.31977 -11.4442 26.0732 -9.05295
lowerback 6.11795 3.38371 6.01037
upperback 1.55846 4.90381 0.664628
thorax -1.36509 2.44692 -3.00475
lowerneck -14.6554 -2.19549 -3.02791
upperneck 24.8982 -3.82068 6.15314
head 10.5874 -1.24631 2.21494
rclavicle -3.42593e-014 -2.38542e-014
rhumerus -19.5804 13.6143 -97.0165
rradius 38.3295
rwrist 35.4787
rhand -32.5443 -13.2668
rfingers 7.12502
rthumb -5.77423 -43.1681
lclavicle -3.42593e-014 -2.38542e-014
lhumerus -50.0647 7.27733 70.9493
lradius 10.4743
lwrist -36.3948
lhand -34.0691 6.92489
lfingers 7.12502
lthumb -7.24625 36.7808
rfemur 30.2181 -12.1734 13.354
rtibia 13.1759
rfoot -5.79022 5.87083
rtoes -30.2044
lfemur -14.857 18.2736 -13.1645
ltibia 32.2313
lfoot -15.1962 -16.8304
ltoes -5.33287
153
root -3.92887 16.6392 2.46816 -11.5787 26.514 -8.84692
lowerback 6.04358 3.34458 5.76311
upperback 1.54894 4.82977 0.577284
thorax -1.35365 2.41055 -2.94929
lowerneck -14.8554 -2.17412 -2.99579
upperneck 25.2237 -3.8181 6.18542
head 10.7469 -1.22804 2.22667
rclavicle 7.8843e-014 2.06736e-014
rhumerus -20.2443 13.1602 -97.0737
rradius 37.996
rwrist 35.3917
rhand -32.3148 -13.3423
rfingers 7.12502
rthumb -5.55272 -43.2496
lclavicle 7.8843e-014 2.06736e-014
lhumerus -49.5107 7.61061 71.3615
lradius 9.87817
lwrist -36.7772
lhand -34.2426 6.88478
lfingers 7.12502
lthumb -7.41375 36.7349
rfemur 28.2026 -12.0822 12.4315
rtibia 18.6037
rfoot -5.05296 7.30437
rtoes -30.8835
lfemur -13.7994 18.3571 -13.3714
ltibia 32.0475
lfoot -15.2924 -17.593
ltoes -4.50516
154
root -3.7916 16.6613 2.60203 -11.6538 26.7799 -8.57514
lowerback 6.33721 4.40106 9.0252
upperback 1.53641 6.43434 -1.1586
thorax -0.8113 3.24402 -6.63882
lowerneck -14.6765 -3.53713 -3.53105
upperneck 24.7229 -6.11587 8.15787
head 10.7496 -2.10064 2.70788
rclavicle 1.16885e-013 -3.10104e-014
rhumerus -20.4243 7.61675 -96.9806
rradius 37.758
rwrist 36.1133
rhand -32.1805 -13.2052
rfingers 7.12502
rthumb -5.42301 -43.1158
lclavicle 1.16885e-013 -3.10104e-014
lhumerus -47.312 3.32327 71.6655
lradius 10.1999
lwrist -37.0823
lhand -33.3974 6.37325
lfingers 7.12502
lthumb -6.59784 36.2505
rfemur 26.2671 -11.6687 11.5504
rtibia 23.3801
rfoot -3.69874 8.60027
rtoes -31.0411
lfemur -12.7231 17.9623 -13.6415
ltibia 31.7459
lfoot -15.2876 -17.9325
ltoes -3.27582
155
root -3.66658 16.6899 2.73779 -11.6763 26.9016 -8.18842
lowerback 6.00603 3.45275 5.44737
upperback 1.60777 4.9462 0.383873
thorax -1.27096 2.47307 -2.97456
lowerneck -15.1275 -2.20744 -3.41419
upperneck 25.59 -3.82621 6.41602
head 10.9505 -1.23218 2.38764
rclavicle -3.41661e-014 7.95139e-016
rhumerus -21.6533 12.0167 -96.9704
rradius 37.3824
rwrist 34.906
rhand -31.8577 -13.28
rfingers 7.12502
rthumb -5.11133 -43.1984
lclavicle -3.41661e-014 7.95139e-016
lhumerus -48.7909 8.81147 70.7683
lradius 10.1796
lwrist -39.195
lhand -33.6501 6.28168
lfingers 7.12502
lthumb -6.84181 36.1511
rfemur 24.3219 -10.9027 10.815
rtibia 27.8855
rfoot -2.06731 9.70369
rtoes -29.4061
lfemur -11.4968 17.5497 -14
ltibia 31.2372
lfoot -15.3762 -17.7615
ltoes -2.47549
156
root -3.54346 16.7242 2.86735 -11.7337 27.0819 -8.04017
lowerback 6.11205 3.45611 5.21807
upperback 1.55409 4.94646 0.45194
thorax -1.41131 2.4681 -2.78857
lowerneck -15.2207 -2.17398 -3.71764
upperneck 25.7336 -3.71846 6.48505
head 11.0232 -1.20028 2.48304
rclavicle -7.65818e-014 -6.36111e-015
rhumerus -22.4071 11.1929 -96.7589
rradius 36.81
rwrist 35.7063
rhand -31.6668 -12.9551
rfingers 7.12502
rthumb -4.92701 -42.8778
lclavicle -7.65818e-014 -6.36111e-015
lhumerus -48.1863 6.58827 73.7468
lradius 10.9096
lwrist -35.4632
lhand -33.1656 6.78587
lfingers 7.12502
lthumb -6.37405 36.67
rfemur 22.3531 -10.5153 10.238
rtibia 32.079
rfoot -0.317231 11.0246
rtoes -27.6114
lfemur -10.4004 17.343 -14.1913
ltibia 30.5995
lfoot -15.5134 -17.9176
ltoes -2.19932
157
root -3.41858 16.7588 2.98892 -11.7159 27.1823 -7.65442
lowerback 6.33775 3.50165 4.98246
upperback 1.53842 5.00465 0.378515
thorax -1.5619 2.49309 -2.75476
lowerneck -15.3705 -2.17767 -3.87455
upperneck 25.8461 -3.64714 6.35967
head 11.0908 -1.1947 2.47604
rclavicle -1.8487e-014 1.90833e-014
rhumerus -23.21 10.7061 -96.7915
rradius 36.7245
rwrist 34.6381
rhand -31.0211 -13.125
rfingers 7.12502
rthumb -4.30348 -43.0613
lclavicle -1.8487e-014 1.90833e-014
lhumerus -47.5847 5.59648 75.2645
lradius 11.4426
lwrist -34.231
lhand -32.9838 6.59191
lfingers 7.12502
lthumb -6.19855 36.4812
rfemur 20.3279 -9.78261 9.6682
rtibia 36.1632
rfoot 1.45683 12.4172
rtoes -24.06
lfemur -9.16572 17.1619 -14.5968
ltibia 29.8256
lfoot -15.681 -17.8178
ltoes -1.80562
